<svg xmlns="http://www.w3.org/2000/svg" width="48" height="48" viewBox="0 0 48 48"><defs><style>.cls-1{fill:#f6b445;}.cls-2{fill:#f6a945;}.cls-3{fill:#fed049;}.cls-4{fill:#fa5c66;}.cls-5{fill:none;stroke:#474c54;stroke-linecap:round;stroke-linejoin:round;stroke-width:2px;}</style></defs><title>3-Email</title><g id="_3-Email" data-name="3-Email"><path class="cls-1" d="M47,13V41a4.025,4.025,0,0,1-1.17,2.83L39,37,28,26l-.28-.43Z"/><path class="cls-2" d="M39,37l6.83,6.83A4.025,4.025,0,0,1,43,45H5a4.025,4.025,0,0,1-2.83-1.17L9,37,20,26l.25-.39L24,28l3.72-2.43L28,26Z"/><path class="cls-1" d="M20.25,25.61,20,26,9,37,2.17,43.83A4.025,4.025,0,0,1,1,41V15a3.944,3.944,0,0,1,.18-1.19L2,14Z"/><path class="cls-3" d="M47,13,27.72,25.57,24,28l-3.75-2.39L2,14l-.82-.19A4,4,0,0,1,5,11H42C46,11,47,13,47,13Z"/><circle class="cls-4" cx="35" cy="14" r="12"/><line class="cls-5" x1="24" y1="28" x2="2" y2="14"/><path class="cls-5" d="M19,11H5a4,4,0,0,0-4,4V41a4,4,0,0,0,4,4H43a4,4,0,0,0,4-4V14a12,12,0,1,0-4.074,9.01"/><line class="cls-5" x1="9" y1="37" x2="20" y2="26"/><line class="cls-5" x1="31" y1="10" x2="39" y2="18"/><line class="cls-5" x1="39" y1="10" x2="31" y2="18"/></g></svg>