<svg xmlns="http://www.w3.org/2000/svg" viewBox="0 0 60 60"><defs><style>.cls-1{fill:#ffc247;}.cls-2{fill:#ffe45c;}.cls-3{fill:#ffda45;}.cls-4{opacity:0.54;}.cls-5{fill:#fff;}.cls-6{fill:#ff636e;}.cls-7{fill:#ff475a;}.cls-8{fill:#f2f6fc;}.cls-9{fill:#2b1505;}</style></defs><title>10-Email</title><g id="_10-Email" data-name="10-Email"><path class="cls-1" d="M57,21l.24-.24A5.944,5.944,0,0,1,59,25V53a5.944,5.944,0,0,1-1.76,4.24L57,57,36,36l-.06-.08Z"/><path class="cls-1" d="M3,57l-.24.24A5.944,5.944,0,0,1,1,53V25a5.944,5.944,0,0,1,1.76-4.24L3,21,24.06,35.92,24,36Z"/><path class="cls-2" d="M57,57l.24.24A5.944,5.944,0,0,1,53,59H7a5.944,5.944,0,0,1-4.24-1.76L3,57,24,36l.06-.08L27,38a4.38,4.38,0,0,0,3,1,4.38,4.38,0,0,0,3-1l2.94-2.08L36,36Z"/><path class="cls-2" d="M2.76,20.76A5.944,5.944,0,0,1,7,19H53a5.944,5.944,0,0,1,4.24,1.76L57,21,35.94,35.92,33,38a4.38,4.38,0,0,1-3,1,4.38,4.38,0,0,1-3-1l-2.94-2.08L3,21Z"/><path class="cls-1" d="M27,42a4.38,4.38,0,0,0,3,1,4.38,4.38,0,0,0,3-1l2.94-2.08,2.33-1.65L36,36l-.06-.08L33,38a4.38,4.38,0,0,1-3,1,4.38,4.38,0,0,1-3-1l-2.94-2.08L24,36l-2.27,2.27,2.33,1.65Z"/><path class="cls-3" d="M55,55H5L3,57l-.24.24A5.944,5.944,0,0,0,7,59H53a5.944,5.944,0,0,0,4.24-1.76L57,57Z"/><g class="cls-4"><path class="cls-5" d="M13.616,19H7a5.944,5.944,0,0,0-4.24,1.76L3,21l4.862,3.444-.1-.219C9.252,20.989,11.323,19,13.616,19Z"/></g><path class="cls-6" d="M43,1A16,16,0,1,1,30.18,26.54,20.715,20.715,0,0,0,26,31a12.222,12.222,0,0,1,2.4-7.48A15.979,15.979,0,0,1,43,1Z"/><path class="cls-7" d="M59,17A15.984,15.984,0,0,0,36.463,2.4,15.991,15.991,0,0,1,46.537,32.6,15.992,15.992,0,0,0,59,17Z"/><g id="_Group_" data-name="&lt;Group&gt;"><circle class="cls-8" cx="43" cy="25" r="2"/><path class="cls-8" d="M45,9v8a2,2,0,0,1-4,0V9a2,2,0,0,1,4,0Z"/><path class="cls-9" d="M60,17a17,17,0,0,0-34,0c0,.336.029.667.048,1H7a7.008,7.008,0,0,0-7,7V53a7.008,7.008,0,0,0,7,7H53a7.008,7.008,0,0,0,7-7V25a7,7,0,0,0-.731-3.083A16.96,16.96,0,0,0,60,17ZM43,2A15,15,0,1,1,30.979,25.943a1,1,0,0,0-1.4-.2,17.467,17.467,0,0,0-2.13,1.91A10.818,10.818,0,0,1,29.2,24.117a1,1,0,0,0,.113-1.007A14.844,14.844,0,0,1,28,17,15.017,15.017,0,0,1,43,2ZM26.278,20a16.974,16.974,0,0,0,.979,3.4A13.248,13.248,0,0,0,25,31a1,1,0,0,0,1.831.556,20.859,20.859,0,0,1,3.19-3.6A16.841,16.841,0,0,0,38,33.235l-5.575,3.949a1.1,1.1,0,0,0-.117.1A3.469,3.469,0,0,1,30,38a3.478,3.478,0,0,1-2.293-.707,1.033,1.033,0,0,0-.129-.109L4.387,20.757A4.955,4.955,0,0,1,7,20ZM2,25a4.959,4.959,0,0,1,.9-2.846l19.629,13.9L2.833,55.753A4.969,4.969,0,0,1,2,53ZM7,58a4.969,4.969,0,0,1-2.753-.833L24.184,37.23l2.184,1.548A5.441,5.441,0,0,0,30,40a5.441,5.441,0,0,0,3.632-1.222l2.184-1.548L55.753,57.167A4.969,4.969,0,0,1,53,58ZM58,25V53a4.969,4.969,0,0,1-.833,2.753L37.472,36.058l3.162-2.24A16.813,16.813,0,0,0,58,24.985Z"/><path class="cls-9" d="M43,20a3,3,0,0,0,3-3V9a3,3,0,0,0-6,0v8A3,3,0,0,0,43,20ZM42,9a1,1,0,0,1,2,0v8a1,1,0,0,1-2,0Z"/><path class="cls-9" d="M43,28a3,3,0,1,0-3-3A3,3,0,0,0,43,28Zm0-4a1,1,0,1,1-1,1A1,1,0,0,1,43,24Z"/></g></g></svg>